<?xml version="1.0" encoding="UTF-8" standalone="no"?>
<!-- Created with Inkscape (http://www.inkscape.org/) -->

<svg
   width="38pt"
   height="38pt"
   viewBox="0 0 13.405555 13.405555"
   version="1.1"
   id="svg5"
   inkscape:version="1.1.1 (3bf5ae0d25, 2021-09-20)"
   sodipodi:docname="logo.svg"
   xmlns:inkscape="http://www.inkscape.org/namespaces/inkscape"
   xmlns:sodipodi="http://sodipodi.sourceforge.net/DTD/sodipodi-0.dtd"
   xmlns="http://www.w3.org/2000/svg"
   xmlns:svg="http://www.w3.org/2000/svg">
  <sodipodi:namedview
     id="namedview7"
     pagecolor="#ffffff"
     bordercolor="#666666"
     borderopacity="1.0"
     inkscape:pageshadow="2"
     inkscape:pageopacity="0.0"
     inkscape:pagecheckerboard="0"
     inkscape:document-units="mm"
     showgrid="false"
     fit-margin-top="0"
     fit-margin-left="0"
     fit-margin-right="0"
     fit-margin-bottom="0"
     inkscape:zoom="5.7869809"
     inkscape:cx="33.609926"
     inkscape:cy="37.238761"
     inkscape:window-width="1920"
     inkscape:window-height="1001"
     inkscape:window-x="-9"
     inkscape:window-y="-9"
     inkscape:window-maximized="1"
     inkscape:current-layer="layer1"
     units="pt"
     lock-margins="true" />
  <defs
     id="defs2" />
  <g
     inkscape:label="Layer 1"
     inkscape:groupmode="layer"
     id="layer1"
     transform="translate(-85.589116,-101.31695)">
    <rect
       style="fill:#ffffff;stroke:none;stroke-width:0.226428"
       id="rect1831"
       width="7.4537277"
       height="7.308794"
       x="88.606651"
       y="104.37248" />
    <g
       id="g1800"
       transform="matrix(0.14200784,0,0,0.14200784,73.64499,87.133691)">
      <path
         style="fill:#0083fe;stroke-width:0.0846667"
         d="m 112.72478,179.68397 -18.541997,-10.86128 -0.02133,-21.76124 -0.02133,-21.76123 18.533577,-10.84864 c 10.19347,-5.96675 18.55649,-10.84863 18.5845,-10.84863 0.028,0 0.0509,4.29973 0.0509,9.55496 v 9.55496 l -1.0795,0.059 c -5.2105,0.28488 -9.83418,2.00854 -13.99117,5.21578 -1.03425,0.79796 -3.18065,2.94436 -3.97861,3.97861 -2.83306,3.67201 -4.5091,7.72775 -5.09084,12.319 -0.13998,1.10471 -0.14089,4.41882 -0.001,5.50334 0.59334,4.61719 2.26472,8.6595 5.09356,12.319 0.79947,1.03423 2.94319,3.17795 3.97741,3.97742 4.1477,3.20622 8.7662,4.92764 13.99117,5.21484 l 1.0795,0.0593 v 9.5982 c 0,5.279 -0.01,9.59587 -0.0212,9.59302 -0.0116,-0.003 -8.36506,-4.89276 -18.56316,-10.86647 z m 16.42534,-10.1857 c -0.77893,-0.0726 -2.52161,-0.38508 -3.429,-0.61492 -7.9345,-2.00982 -14.24858,-8.3239 -16.2584,-16.2584 -0.53432,-2.10942 -0.62825,-2.94484 -0.62825,-5.588 0,-2.64315 0.0939,-3.47857 0.62825,-5.588 2.40292,-9.48639 10.95883,-16.5095 20.59756,-16.90748 l 1.24884,-0.0516 v 2.71832 2.71833 l -2.12975,4.82986 c -2.02877,4.60085 -2.14017,4.8298 -2.3495,4.82857 -0.12087,-6.8e-4 -2.4657,-0.24714 -5.21075,-0.54761 -2.74505,-0.30048 -5.00663,-0.53069 -5.02574,-0.51158 -0.0441,0.0441 -0.16112,-0.11933 3.26007,4.55298 l 2.89828,3.95817 -2.89828,3.95817 c -3.41828,4.66833 -3.30412,4.50893 -3.26048,4.55258 0.0189,0.0189 2.29599,-0.21192 5.06023,-0.51288 2.76425,-0.30096 5.10927,-0.5472 5.21116,-0.5472 0.16351,0 0.43527,0.56699 2.31501,4.82986 l 2.12975,4.82987 v 2.70547 2.70546 l -0.91017,-0.0142 c -0.50059,-0.008 -1.06257,-0.0284 -1.24883,-0.0458 z"
         id="path880" />
      <path
         style="fill:#3469a6;stroke-width:0.0846667"
         d="m 131.30912,180.92261 v -9.56245 l 1.12183,-0.0591 c 5.30103,-0.27919 10.11031,-2.11056 14.20283,-5.40844 0.48895,-0.39401 1.42344,-1.26395 2.07664,-1.9332 3.65885,-3.74875 5.88876,-8.29263 6.66001,-13.57111 0.267,-1.82736 0.267,-4.8754 0,-6.70276 -0.80481,-5.50816 -3.18329,-10.18925 -7.13883,-14.04993 -4.28867,-4.18582 -9.71402,-6.54225 -15.80065,-6.86282 l -1.12183,-0.0591 v -9.55539 c 0,-5.25547 0.0238,-9.5554 0.053,-9.5554 0.0291,0 8.39208,4.88143 18.58433,10.84761 l 18.53137,10.84762 -9e-5,21.72788 -8e-5,21.72789 -18.51067,10.83734 c -10.18093,5.96053 -18.54383,10.85003 -18.58428,10.86555 -0.0414,0.0159 -0.0735,-4.15758 -0.0735,-9.53423 z m 0,-14.04858 v -2.68425 l 2.13783,-4.85095 c 1.76089,-3.99563 2.16664,-4.85098 2.30118,-4.85109 0.0898,-7e-5 2.44757,0.24882 5.2394,0.55309 2.79183,0.30427 5.08787,0.54139 5.10232,0.52694 0.0144,-0.0145 -1.3622,-1.92208 -3.05923,-4.23917 -1.69703,-2.3171 -3.0855,-4.24834 -3.0855,-4.29165 0,-0.0433 1.38847,-1.97455 3.0855,-4.29165 1.69703,-2.31709 3.07368,-4.22472 3.05923,-4.23917 -0.0145,-0.0145 -2.31049,0.22268 -5.10232,0.52694 -2.79183,0.30427 -5.14956,0.55316 -5.2394,0.55309 -0.13454,-9e-5 -0.54029,-0.85546 -2.30118,-4.85108 l -2.13783,-4.85096 v -2.68425 -2.68425 h 0.74135 c 0.97303,0 2.62779,0.19724 3.88928,0.46359 7.36598,1.55523 13.49637,6.71649 16.31476,13.73563 2.11185,5.25954 2.11185,11.38468 0,16.64422 -2.81839,7.01914 -8.94878,12.1804 -16.31476,13.73564 -1.26149,0.26634 -2.91625,0.46358 -3.88928,0.46358 h -0.74135 z"
         id="path876" />
    </g>
  </g>
</svg>
